# ProBuilder 5.0.6
# https://unity3d.com/unity/features/worldbuilding/probuilder
# 12/1/2022 12:02:19 PM

mtllib ./TriangularMesh.mtl
o TriangularMesh

g Cube
v -0.1031386 0 0.09780511
v -0.2062771 0 -0.1353293
v -0.1031385 0.1486611 0.09780502
v -0.2062771 0.1486611 -0.1353292
v 7.450581E-09 0 -0.1353293
v 0 0.1486611 -0.1353292

vt 0.04771579 -4.48511E-08
vt -0.2072141 -4.48511E-08
vt 0.04771572 0.1486611
vt -0.207214 0.1486611
vt 0.2062771 -8.138903E-08
vt -7.450581E-09 -8.138903E-08
vt 0.2062771 0.1486611
vt 0 0.1486611
vt 0.1237593 -1.08125E-08
vt -0.1311706 -1.081251E-08
vt 0.1237592 0.1486611
vt -0.1311705 0.1486611
vt 0.1031385 0.09780502
vt 0 -0.1353292
vt 0.2062771 -0.1353292
vt -0.2062771 -0.1353293
vt -0.1031386 0.09780511

vn -0.9145043 3.34984E-07 0.4045762
vn 0 6.014145E-07 -1
vn 0.9145043 -1.97485E-07 0.4045762
vn 0 1 0
vn 0 -1 0

usemtl Lit
f 6/14/4 4/15/4 3/13/4
f 1/17/5 2/16/5 5/14/5
f 4/4/1 2/2/1 1/1/1
f 1/1/1 3/3/1 4/4/1
f 6/8/2 5/6/2 2/5/2
f 2/5/2 4/7/2 6/8/2
f 3/12/3 1/10/3 5/9/3
f 5/9/3 6/11/3 3/12/3

